<svg xmlns="http://www.w3.org/2000/svg" viewBox="0 0 512 512">
  <defs>
    <linearGradient id="bg" x1="0%" y1="0%" x2="100%" y2="100%">
      <stop offset="0%" stop-color="#0b3f38" />
      <stop offset="100%" stop-color="#178067" />
    </linearGradient>
    <linearGradient id="accent" x1="0%" y1="0%" x2="100%" y2="100%">
      <stop offset="0%" stop-color="#ffb36f" />
      <stop offset="100%" stop-color="#ff7b38" />
    </linearGradient>
  </defs>
  <rect width="512" height="512" rx="132" fill="url(#bg)" />
  <circle cx="360" cy="148" r="92" fill="#ffffff" opacity="0.08" />
  <path d="M142 347V193c0-18.8 15.2-34 34-34h159c18.8 0 34 15.2 34 34v25h-48v-11H190v140h131v-11h48v25c0 18.8-15.2 34-34 34H176c-18.8 0-34-15.2-34-34Z" fill="#fffaf5"/>
  <path d="M226 305h58c25.4 0 46-20.6 46-46s-20.6-46-46-46h-58v92Z" fill="url(#accent)"/>
  <path d="M226 233h58a26 26 0 0 1 0 52h-58v-52Z" fill="#ffd9c3"/>
</svg>
