<svg xmlns="http://www.w3.org/2000/svg" viewBox="0 0 192 192">
  <defs>
    <linearGradient id="bg" x1="0%" y1="0%" x2="100%" y2="100%">
      <stop offset="0%" stop-color="#0b3f38" />
      <stop offset="100%" stop-color="#178067" />
    </linearGradient>
    <linearGradient id="accent" x1="0%" y1="0%" x2="100%" y2="100%">
      <stop offset="0%" stop-color="#ffb36f" />
      <stop offset="100%" stop-color="#ff7b38" />
    </linearGradient>
  </defs>
  <rect width="192" height="192" rx="48" fill="url(#bg)" />
  <circle cx="134" cy="56" r="34" fill="#ffffff" opacity="0.1" />
  <path d="M54 130V71c0-7.2 5.8-13 13-13h58c7.2 0 13 5.8 13 13v9h-18v-4H72v54h48v-4h18v9c0 7.2-5.8 13-13 13H67c-7.2 0-13-5.8-13-13Z" fill="#fffaf5"/>
  <path d="M86 114h20c9.9 0 18-8.1 18-18s-8.1-18-18-18H86v36Z" fill="url(#accent)"/>
  <path d="M86 86h20a10 10 0 0 1 0 20H86V86Z" fill="#ffd9c3"/>
</svg>
